<?xml version="1.0" encoding="utf-8"?>
<!-- Generator: Adobe Illustrator 20.1.0, SVG Export Plug-In . SVG Version: 6.00 Build 0)  -->
<svg version="1.1" id="Layer_1" xmlns="http://www.w3.org/2000/svg" xmlns:xlink="http://www.w3.org/1999/xlink" x="0px" y="0px"
	 viewBox="0 0 611.1 68.6" style="enable-background:new 0 0 611.1 68.6;" xml:space="preserve">
<style type="text/css">
	.st0{fill:#00FF00;}
	.st1{fill:#FFFFFF;}
	.st2{fill:url(#SVGID_1_);}
</style>
<symbol  id="New_Symbol" viewBox="-2.9 -2.9 5.8 5.8">
	<path class="st0" d="M0.6-2.9h-1.1c-1.3,0-2.3,1-2.3,2.3v1.1c0,1.3,1,2.3,2.3,2.3h1.1c1.3,0,2.3-1,2.3-2.3v-1.1
		C2.9-1.8,1.8-2.9,0.6-2.9z"/>
</symbol>
<g>
	<g>
		<path class="st1" d="M3.3,11.9V1.3H0.6V0h6.9v1.3H4.8v10.6H3.3z"/>
		<path class="st1" d="M11.6,10.6v-6h-1.2V3.4H13v0.5c0.4-0.3,0.8-0.5,1.4-0.5h1.8v1.4h-1.9c-0.4,0-0.6,0.1-0.8,0.3
			c-0.2,0.2-0.3,0.5-0.3,0.7v4.8h1.9v1.3h-4.5v-1.3H11.6z"/>
		<path class="st1" d="M24.4,11.8c-0.2-0.1-0.3-0.2-0.5-0.4c-0.3,0.3-0.6,0.5-1,0.5h-1.5c-0.9,0-1.5-0.2-1.9-0.5S19,10.4,19,9.6V9.3
			c0-1.8,0.8-2.6,2.5-2.6h2.1V5.8c0-0.4-0.1-0.6-0.3-0.8c-0.2-0.2-0.5-0.3-1-0.3h-2.6V3.4h2.5c1,0,1.7,0.2,2.2,0.6S25,5.2,25,6.1
			v4.1c0,0.2,0.1,0.3,0.2,0.4c0.1,0.1,0.3,0.1,0.7,0.1v1.2h-0.9C24.8,11.9,24.6,11.9,24.4,11.8z M23.4,10.4c0.1-0.2,0.1-0.4,0.1-0.6
			V7.9h-2.1c-0.3,0-0.5,0.1-0.7,0.3c-0.2,0.2-0.3,0.4-0.3,0.7v0.9c0,0.3,0.1,0.5,0.2,0.6c0.1,0.1,0.4,0.2,0.6,0.2h1.5
			C23.1,10.6,23.3,10.5,23.4,10.4z"/>
		<path class="st1" d="M31.8,1.4c-0.1,0.1-0.2,0.2-0.2,0.4v1.6h2.7v1.3h-2.7v6h2.1v1.3h-4.9v-1.3h1.4v-6h-1.4V3.4h1.4V1.9
			c0-0.6,0.2-1,0.5-1.4C31,0.2,31.4,0,31.9,0h2.6v1.3h-2.3C32,1.3,31.9,1.3,31.8,1.4z"/>
		<path class="st1" d="M40.9,1.4c-0.1,0.1-0.2,0.2-0.2,0.4v1.6h2.7v1.3h-2.7v6h2.1v1.3h-4.9v-1.3h1.4v-6h-1.4V3.4h1.4V1.9
			c0-0.6,0.2-1,0.5-1.4C40.2,0.2,40.6,0,41.1,0h2.6v1.3h-2.3C41.2,1.3,41,1.3,40.9,1.4z M46.7,4.7V3.4h3.9v7.2h2.5v1.3h-4V4.7H46.7z
			 M50.8,0v1.5h-1.6V0H50.8z"/>
		<path class="st1" d="M57.3,11.3c-0.5-0.4-0.7-1.1-0.7-2.1V6.1c0-1,0.2-1.6,0.7-2.1c0.5-0.4,1.2-0.6,2.2-0.6h2.2v1.3h-2.4
			c-0.4,0-0.7,0.1-1,0.3C58.2,5.2,58,5.4,58,5.8v3.7c0,0.4,0.1,0.6,0.3,0.8c0.2,0.2,0.5,0.3,1,0.3h2.4v1.3h-2.2
			C58.5,11.9,57.8,11.7,57.3,11.3z"/>
		<path class="st1" d="M73.9,0h1.5l2,10.4L79.6,0h1.5l-2.7,11.9h-2L73.9,0z"/>
		<path class="st1" d="M89.1,11.3c-0.5,0.4-1.2,0.6-2.2,0.6h-0.6c-1,0-1.7-0.2-2.2-0.6c-0.5-0.4-0.7-1.1-0.7-2.1V6.1
			c0-1,0.2-1.6,0.7-2.1c0.5-0.4,1.2-0.6,2.2-0.6H87c1,0,1.7,0.2,2.2,0.6s0.7,1.1,0.7,2.1v3.1C89.9,10.1,89.6,10.8,89.1,11.3z
			 M88.1,5c-0.2-0.2-0.5-0.3-1-0.3h-0.9c-0.4,0-0.7,0.1-1,0.3C85.1,5.2,85,5.4,85,5.8v3.7c0,0.4,0.1,0.6,0.3,0.8
			c0.2,0.2,0.5,0.3,1,0.3h0.9c0.4,0,0.7-0.1,1-0.3c0.2-0.2,0.3-0.5,0.3-0.8V5.8C88.4,5.4,88.3,5.2,88.1,5z"/>
		<path class="st1" d="M95.4,11.5c-0.3-0.3-0.4-0.7-0.4-1.3V1.3h-2.5V0h3.9v10.1c0,0.2,0,0.3,0.1,0.4c0.1,0.1,0.2,0.1,0.5,0.1h2.3
			v1.3h-2.9C96,11.9,95.7,11.8,95.4,11.5z"/>
		<path class="st1" d="M105.3,11.9h-0.6c-0.9,0-1.6-0.2-2-0.6s-0.7-1.1-0.7-2.1V3.4h1.4v6.1c0,0.3,0.1,0.6,0.3,0.8
			c0.2,0.2,0.5,0.3,0.8,0.3h0.9c0.4,0,0.6-0.1,0.8-0.3s0.3-0.4,0.3-0.6V3.4h1.4v8.5h-1.4v-0.4C106.3,11.8,105.9,11.9,105.3,11.9z"/>
		<path class="st1" d="M111.6,3.4v0.4c0.3-0.3,0.6-0.4,1.1-0.4h0.1c0.8,0,1.4,0.2,1.7,0.7c0.4-0.5,0.9-0.7,1.5-0.7h0.1
			c0.7,0,1.2,0.2,1.5,0.5c0.3,0.4,0.5,1,0.5,1.9v6.1h-1.4V5.8c0-0.5,0-0.8-0.1-1s-0.3-0.3-0.7-0.3h-0.1c-0.3,0-0.6,0.1-0.7,0.3
			c-0.1,0.2-0.2,0.5-0.2,0.8v6.2h-1.4V5.8c0-0.5-0.1-0.8-0.2-1c-0.1-0.2-0.3-0.3-0.6-0.3h-0.1c-0.3,0-0.6,0.1-0.7,0.3
			s-0.2,0.4-0.2,0.7v6.4h-1.4V3.4H111.6z"/>
		<path class="st1" d="M121.1,11.3c-0.5-0.4-0.7-1.1-0.7-2.1V6.1c0-1,0.2-1.7,0.6-2.1c0.4-0.4,1.1-0.6,2.1-0.6h0.8
			c0.8,0,1.4,0.2,1.8,0.7c0.4,0.4,0.6,1.1,0.6,2v2.2h-4.5v1.3c0,0.4,0.1,0.6,0.3,0.8c0.2,0.2,0.5,0.3,1,0.3h2.7v1.3h-2.5
			C122.3,11.9,121.6,11.7,121.1,11.3z M125,5.7c0-0.3-0.1-0.5-0.3-0.7c-0.2-0.2-0.4-0.3-0.7-0.3h-1c-0.4,0-0.7,0.1-0.9,0.3
			c-0.2,0.2-0.2,0.5-0.2,0.8V7h3.1V5.7z"/>
		<path class="st1" d="M136.9,3.6c0.2-0.6,0.6-1.1,1-1.5h1.1c-0.4,0.5-0.7,0.9-0.9,1.2s-0.3,0.7-0.4,1.1s-0.1,0.9-0.1,1.5v3.8
			c0,0.6,0,1.1,0.1,1.5s0.2,0.7,0.4,1.1s0.5,0.7,0.9,1.2h-1.1c-0.4-0.4-0.8-0.9-1-1.5c-0.2-0.6-0.4-1.3-0.4-2.3V5.8
			C136.5,4.9,136.6,4.2,136.9,3.6z"/>
		<path class="st1" d="M140.8,5.9h1.1l1.4,5.2l1.4-5.2h1.1l-1.7,6h-1.5L140.8,5.9z"/>
		<path class="st1" d="M147.3,11.4c-0.3-0.3-0.5-0.8-0.5-1.5V7.8c0-0.7,0.1-1.2,0.4-1.5c0.3-0.3,0.8-0.4,1.5-0.4h0.6
			c0.6,0,1,0.2,1.3,0.5s0.4,0.8,0.4,1.4v1.6h-3.2v0.9c0,0.2,0.1,0.4,0.2,0.6c0.2,0.1,0.4,0.2,0.7,0.2h1.9v0.9h-1.8
			C148.1,11.9,147.6,11.8,147.3,11.4z M150,7.5c0-0.2-0.1-0.4-0.2-0.5c-0.1-0.1-0.3-0.2-0.5-0.2h-0.7c-0.3,0-0.5,0.1-0.6,0.2
			c-0.1,0.1-0.2,0.3-0.2,0.6v0.8h2.2V7.5z"/>
		<path class="st1" d="M153.3,3.5v2.6c0.2-0.2,0.5-0.2,0.9-0.2h0.6c0.6,0,1.1,0.2,1.4,0.5s0.5,0.8,0.5,1.5v4.1h-1V7.6
			c0-0.2-0.1-0.4-0.2-0.6c-0.1-0.1-0.3-0.2-0.6-0.2h-0.8c-0.3,0-0.4,0.1-0.6,0.2c-0.1,0.1-0.2,0.3-0.2,0.4v4.5h-1V3.5H153.3z"/>
		<path class="st1" d="M157.8,6.8V5.9h2.8V11h1.8v0.9h-2.8V6.8H157.8z M160.6,3.5v1.1h-1.1V3.5H160.6z"/>
		<path class="st1" d="M164.3,11.4c-0.3-0.3-0.5-0.8-0.5-1.5V7.8c0-0.7,0.2-1.2,0.5-1.5s0.8-0.5,1.5-0.5h1.5v0.9h-1.7
			c-0.3,0-0.5,0.1-0.7,0.2c-0.2,0.1-0.2,0.3-0.2,0.6v2.6c0,0.2,0.1,0.4,0.2,0.6c0.2,0.1,0.4,0.2,0.7,0.2h1.7v0.9h-1.5
			C165.2,11.9,164.6,11.8,164.3,11.4z"/>
		<path class="st1" d="M170.9,11.6c-0.2-0.2-0.3-0.5-0.3-0.9V4.4h-1.8V3.5h2.8v7.1c0,0.1,0,0.2,0.1,0.3c0.1,0.1,0.2,0.1,0.3,0.1h1.6
			v0.9h-2C171.3,11.9,171.1,11.8,170.9,11.6z"/>
		<path class="st1" d="M175.2,11.4c-0.3-0.3-0.5-0.8-0.5-1.5V7.8c0-0.7,0.1-1.2,0.4-1.5c0.3-0.3,0.8-0.4,1.5-0.4h0.6
			c0.6,0,1,0.2,1.3,0.5s0.4,0.8,0.4,1.4v1.6h-3.2v0.9c0,0.2,0.1,0.4,0.2,0.6c0.2,0.1,0.4,0.2,0.7,0.2h1.9v0.9h-1.8
			C176,11.9,175.5,11.8,175.2,11.4z M177.9,7.5c0-0.2-0.1-0.4-0.2-0.5c-0.1-0.1-0.3-0.2-0.5-0.2h-0.7c-0.3,0-0.5,0.1-0.6,0.2
			c-0.1,0.1-0.2,0.3-0.2,0.6v0.8h2.2V7.5z"/>
		<path class="st1" d="M183.7,11.5c-0.3,0.2-0.8,0.4-1.3,0.4h-1.8V11h1.9c0.2,0,0.4,0,0.5-0.1c0.1-0.1,0.2-0.2,0.2-0.4V9.8
			c0-0.4-0.2-0.5-0.5-0.5h-0.4c-0.6,0-1-0.1-1.3-0.4s-0.4-0.6-0.4-1.2V7.4c0-0.5,0.2-0.9,0.5-1.2c0.3-0.2,0.8-0.4,1.3-0.4h1.6v0.9
			h-1.7c-0.2,0-0.4,0-0.5,0.1c-0.1,0.1-0.2,0.2-0.2,0.4v0.4c0,0.2,0.1,0.3,0.2,0.4c0.1,0.1,0.2,0.1,0.4,0.1h0.4
			c0.5,0,0.9,0.1,1.2,0.4c0.3,0.3,0.4,0.6,0.4,1.2v0.5C184.2,10.9,184,11.3,183.7,11.5z"/>
		<path class="st1" d="M192.3,5.9v0.3c0.2-0.2,0.6-0.3,1-0.3h0.4c0.7,0,1.2,0.1,1.5,0.5c0.3,0.3,0.5,0.8,0.5,1.5V10
			c0,0.7-0.2,1.2-0.5,1.5c-0.3,0.3-0.8,0.5-1.5,0.5h-1.3v2h-1v-8H192.3z M192.5,7c-0.1,0.1-0.2,0.3-0.2,0.5V11h1.5
			c0.3,0,0.5-0.1,0.7-0.2c0.2-0.1,0.2-0.3,0.2-0.6V7.6c0-0.2-0.1-0.4-0.2-0.6c-0.2-0.1-0.4-0.2-0.7-0.2h-0.7
			C192.9,6.8,192.7,6.9,192.5,7z"/>
		<path class="st1" d="M197.5,11.4c-0.3-0.3-0.5-0.8-0.5-1.5V7.8c0-0.7,0.1-1.2,0.4-1.5c0.3-0.3,0.8-0.4,1.5-0.4h0.6
			c0.6,0,1,0.2,1.3,0.5s0.4,0.8,0.4,1.4v1.6H198v0.9c0,0.2,0.1,0.4,0.2,0.6c0.2,0.1,0.4,0.2,0.7,0.2h1.9v0.9H199
			C198.3,11.9,197.8,11.8,197.5,11.4z M200.2,7.5c0-0.2-0.1-0.4-0.2-0.5c-0.1-0.1-0.3-0.2-0.5-0.2h-0.7c-0.3,0-0.5,0.1-0.6,0.2
			c-0.1,0.1-0.2,0.3-0.2,0.6v0.8h2.2V7.5z"/>
		<path class="st1" d="M203.5,11V6.8h-0.9V5.9h1.8v0.3c0.3-0.2,0.6-0.3,1-0.3h1.2v1h-1.4c-0.3,0-0.4,0.1-0.6,0.2s-0.2,0.3-0.2,0.5
			V11h1.3v0.9h-3.2V11H203.5z"/>
		<path class="st1" d="M215.5,11.6c-0.2-0.2-0.3-0.5-0.3-0.9V4.4h-1.8V3.5h2.8v7.1c0,0.1,0,0.2,0.1,0.3c0.1,0.1,0.2,0.1,0.3,0.1h1.6
			v0.9h-2C216,11.9,215.7,11.8,215.5,11.6z"/>
		<path class="st1" d="M222.8,11.8c-0.1-0.1-0.2-0.2-0.3-0.3c-0.2,0.2-0.4,0.4-0.7,0.4h-1.1c-0.6,0-1-0.1-1.3-0.4
			c-0.3-0.2-0.4-0.7-0.4-1.3V10c0-1.2,0.6-1.9,1.8-1.9h1.5V7.6c0-0.2-0.1-0.4-0.2-0.6c-0.2-0.1-0.4-0.2-0.7-0.2h-1.9V5.9h1.7
			c0.7,0,1.2,0.2,1.5,0.5s0.5,0.8,0.5,1.5v2.9c0,0.1,0,0.2,0.1,0.3c0.1,0.1,0.2,0.1,0.5,0.1v0.8h-0.7
			C223.1,11.9,223,11.9,222.8,11.8z M222.1,10.8c0.1-0.1,0.1-0.3,0.1-0.4V9.1h-1.5c-0.2,0-0.4,0.1-0.5,0.2c-0.1,0.1-0.2,0.3-0.2,0.5
			v0.6c0,0.2,0,0.4,0.1,0.5c0.1,0.1,0.2,0.1,0.5,0.1h1.1C221.9,11,222.1,10.9,222.1,10.8z"/>
		<path class="st1" d="M225.8,5.9v0.3c0.2-0.2,0.6-0.3,1-0.3h0.6c0.6,0,1.1,0.2,1.4,0.5s0.5,0.8,0.5,1.5v4.1h-1V7.6
			c0-0.2-0.1-0.4-0.2-0.6c-0.1-0.1-0.3-0.2-0.6-0.2h-0.8c-0.3,0-0.5,0.1-0.6,0.2c-0.1,0.1-0.2,0.3-0.2,0.5v4.4h-1v-6H225.8z"/>
		<path class="st1" d="M231,11.4c-0.3-0.3-0.5-0.8-0.5-1.5V7.8c0-0.7,0.1-1.2,0.4-1.5c0.3-0.3,0.8-0.4,1.5-0.4h0.6
			c0.6,0,1,0.2,1.3,0.5s0.4,0.8,0.4,1.4v1.6h-3.2v0.9c0,0.2,0.1,0.4,0.2,0.6c0.2,0.1,0.4,0.2,0.7,0.2h1.9v0.9h-1.8
			C231.8,11.9,231.3,11.8,231,11.4z M233.7,7.5c0-0.2-0.1-0.4-0.2-0.5c-0.1-0.1-0.3-0.2-0.5-0.2h-0.7c-0.3,0-0.5,0.1-0.6,0.2
			c-0.1,0.1-0.2,0.3-0.2,0.6v0.8h2.2V7.5z"/>
		<path class="st1" d="M237.8,11.9v-1.2h1.2v1.2l-0.7,1.7h-0.9L237.8,11.9z"/>
		<path class="st1" d="M248.1,5.9v0.3c0.2-0.2,0.6-0.3,1-0.3h0.4c0.7,0,1.2,0.1,1.5,0.5c0.3,0.3,0.5,0.8,0.5,1.5V10
			c0,0.7-0.2,1.2-0.5,1.5c-0.3,0.3-0.8,0.5-1.5,0.5h-1.3v2h-1v-8H248.1z M248.3,7c-0.1,0.1-0.2,0.3-0.2,0.5V11h1.5
			c0.3,0,0.5-0.1,0.7-0.2c0.2-0.1,0.2-0.3,0.2-0.6V7.6c0-0.2-0.1-0.4-0.2-0.6c-0.2-0.1-0.4-0.2-0.7-0.2h-0.7
			C248.7,6.8,248.5,6.9,248.3,7z"/>
		<path class="st1" d="M253.3,11.4c-0.3-0.3-0.5-0.8-0.5-1.5V7.8c0-0.7,0.1-1.2,0.4-1.5c0.3-0.3,0.8-0.4,1.5-0.4h0.6
			c0.6,0,1,0.2,1.3,0.5s0.4,0.8,0.4,1.4v1.6h-3.2v0.9c0,0.2,0.1,0.4,0.2,0.6c0.2,0.1,0.4,0.2,0.7,0.2h1.9v0.9h-1.8
			C254.1,11.9,253.6,11.8,253.3,11.4z M256,7.5c0-0.2-0.1-0.4-0.2-0.5c-0.1-0.1-0.3-0.2-0.5-0.2h-0.7c-0.3,0-0.5,0.1-0.6,0.2
			c-0.1,0.1-0.2,0.3-0.2,0.6v0.8h2.2V7.5z"/>
		<path class="st1" d="M259.3,11V6.8h-0.9V5.9h1.8v0.3c0.3-0.2,0.6-0.3,1-0.3h1.2v1h-1.4c-0.3,0-0.4,0.1-0.6,0.2s-0.2,0.3-0.2,0.5
			V11h1.3v0.9h-3.2V11H259.3z"/>
		<path class="st1" d="M270.5,3.5v2.6c0.2-0.2,0.5-0.2,0.9-0.2h0.6c0.6,0,1.1,0.2,1.4,0.5s0.5,0.8,0.5,1.5v4.1h-1V7.6
			c0-0.2-0.1-0.4-0.2-0.6c-0.1-0.1-0.3-0.2-0.6-0.2h-0.8c-0.3,0-0.4,0.1-0.6,0.2c-0.1,0.1-0.2,0.3-0.2,0.4v4.5h-1V3.5H270.5z"/>
		<path class="st1" d="M279,11.4c-0.3,0.3-0.8,0.5-1.5,0.5H277c-0.7,0-1.2-0.2-1.5-0.5c-0.3-0.3-0.5-0.8-0.5-1.5V7.8
			c0-0.7,0.2-1.2,0.5-1.5s0.8-0.5,1.5-0.5h0.4c0.7,0,1.2,0.2,1.5,0.5s0.5,0.8,0.5,1.5V10C279.5,10.7,279.3,11.1,279,11.4z M278.2,7
			c-0.2-0.1-0.4-0.2-0.7-0.2h-0.6c-0.3,0-0.5,0.1-0.7,0.2c-0.2,0.1-0.2,0.3-0.2,0.6v2.6c0,0.2,0.1,0.4,0.2,0.6
			c0.2,0.1,0.4,0.2,0.7,0.2h0.6c0.3,0,0.5-0.1,0.7-0.2c0.2-0.1,0.2-0.3,0.2-0.6V7.6C278.4,7.3,278.4,7.1,278.2,7z"/>
		<path class="st1" d="M283,11.9h-0.4c-0.6,0-1.1-0.2-1.4-0.5c-0.3-0.3-0.5-0.8-0.5-1.5V5.9h1v4.3c0,0.2,0.1,0.4,0.2,0.6
			c0.1,0.1,0.3,0.2,0.6,0.2h0.6c0.3,0,0.4-0.1,0.6-0.2s0.2-0.3,0.2-0.4V5.9h1v6h-1v-0.3C283.7,11.8,283.4,11.9,283,11.9z"/>
		<path class="st1" d="M287.2,11V6.8h-0.9V5.9h1.8v0.3c0.3-0.2,0.6-0.3,1-0.3h1.2v1H289c-0.3,0-0.4,0.1-0.6,0.2s-0.2,0.3-0.2,0.5V11
			h1.3v0.9h-3.2V11H287.2z"/>
		<path class="st1" d="M294.8,11.8c-0.2,0.6-0.6,1.1-1,1.5h-1.1c0.4-0.5,0.7-0.9,0.9-1.2c0.2-0.3,0.3-0.7,0.4-1.1s0.1-0.9,0.1-1.5
			V5.8c0-0.6,0-1.1-0.1-1.5s-0.2-0.7-0.4-1.1c-0.2-0.3-0.5-0.7-0.9-1.2h1.1c0.4,0.4,0.8,0.9,1,1.5c0.2,0.6,0.4,1.3,0.4,2.3v3.7
			C295.2,10.5,295,11.2,294.8,11.8z"/>
	</g>
	<g>
		<path class="st1" d="M0.9,50.8V51c0.2-0.2,0.5-0.3,0.7-0.3h0.1c0.6,0,1,0.2,1.2,0.5c0.3-0.3,0.6-0.5,1-0.5H4
			c0.5,0,0.8,0.1,1.1,0.4c0.2,0.2,0.3,0.7,0.3,1.3v4.3h-1v-4.3c0-0.3,0-0.6-0.1-0.7s-0.2-0.2-0.5-0.2H3.9c-0.2,0-0.4,0.1-0.5,0.2
			c-0.1,0.2-0.1,0.3-0.1,0.5v4.4h-1v-4.3c0-0.3,0-0.6-0.1-0.7c-0.1-0.1-0.2-0.2-0.4-0.2H1.6c-0.2,0-0.4,0.1-0.5,0.2
			C1,51.9,1,52.1,1,52.2v4.5H0v-6H0.9z"/>
		<path class="st1" d="M6.9,51.7v-0.9h2.8v5.1h1.8v0.9H8.7v-5.1H6.9z M9.8,48.4v1.1H8.6v-1.1H9.8z"/>
		<path class="st1" d="M14.4,50.8V51c0.2-0.2,0.6-0.3,1-0.3H16c0.6,0,1.1,0.2,1.4,0.5s0.5,0.8,0.5,1.5v4.1h-1v-4.3
			c0-0.2-0.1-0.4-0.2-0.6c-0.1-0.1-0.3-0.2-0.6-0.2h-0.8c-0.3,0-0.5,0.1-0.6,0.2c-0.1,0.1-0.2,0.3-0.2,0.5v4.4h-1v-6H14.4z"/>
		<path class="st1" d="M22.8,50.8V52h-1.2v-1.2H22.8z M22.8,55.6v1.2h-1.2v-1.2H22.8z"/>
		<path class="st1" d="M30.2,56.2c-0.4,0.3-0.9,0.5-1.5,0.5h-0.2c-0.6,0-1.1-0.2-1.5-0.5c-0.4-0.3-0.5-0.9-0.5-1.5v-4.3
			c0-0.7,0.2-1.2,0.5-1.5c0.4-0.3,0.9-0.5,1.5-0.5h0.2c0.6,0,1.1,0.2,1.5,0.5c0.4,0.3,0.5,0.9,0.5,1.5v4.3
			C30.8,55.4,30.6,55.9,30.2,56.2z M29.5,49.5c-0.2-0.2-0.4-0.3-0.7-0.3h-0.2c-0.3,0-0.5,0.1-0.7,0.3c-0.2,0.2-0.3,0.4-0.3,0.6v3.3
			l2.2-3.3C29.8,49.9,29.7,49.7,29.5,49.5z M27.8,55.6c0.2,0.2,0.4,0.3,0.7,0.3h0.2c0.3,0,0.5-0.1,0.7-0.3c0.2-0.2,0.3-0.4,0.3-0.6
			v-3.2l-2.2,3.2C27.5,55.2,27.6,55.4,27.8,55.6z"/>
	</g>
	<g>
		<path class="st1" d="M111.6,50.8V51c0.2-0.2,0.5-0.3,0.7-0.3h0.1c0.6,0,1,0.2,1.2,0.5c0.3-0.3,0.6-0.5,1-0.5h0.1
			c0.5,0,0.8,0.1,1.1,0.4c0.2,0.2,0.3,0.7,0.3,1.3v4.3h-1v-4.3c0-0.3,0-0.6-0.1-0.7s-0.2-0.2-0.5-0.2h-0.1c-0.2,0-0.4,0.1-0.5,0.2
			c-0.1,0.2-0.1,0.3-0.1,0.5v4.4h-1v-4.3c0-0.3,0-0.6-0.1-0.7c-0.1-0.1-0.2-0.2-0.4-0.2h-0.1c-0.2,0-0.4,0.1-0.5,0.2
			c-0.1,0.1-0.1,0.3-0.2,0.5v4.5h-1v-6H111.6z"/>
		<path class="st1" d="M121.3,56.7c-0.1-0.1-0.2-0.2-0.3-0.3c-0.2,0.2-0.4,0.4-0.7,0.4h-1.1c-0.6,0-1-0.1-1.3-0.4
			c-0.3-0.2-0.4-0.7-0.4-1.3v-0.2c0-1.2,0.6-1.9,1.8-1.9h1.5v-0.6c0-0.2-0.1-0.4-0.2-0.6c-0.2-0.1-0.4-0.2-0.7-0.2h-1.9v-0.9h1.7
			c0.7,0,1.2,0.2,1.5,0.5s0.5,0.8,0.5,1.5v2.9c0,0.1,0,0.2,0.1,0.3c0.1,0.1,0.2,0.1,0.5,0.1v0.8h-0.7
			C121.5,56.8,121.4,56.7,121.3,56.7z M120.6,55.7c0.1-0.1,0.1-0.3,0.1-0.4v-1.3h-1.5c-0.2,0-0.4,0.1-0.5,0.2
			c-0.1,0.1-0.2,0.3-0.2,0.5v0.6c0,0.2,0,0.4,0.1,0.5c0.1,0.1,0.2,0.1,0.5,0.1h1.1C120.4,55.9,120.5,55.8,120.6,55.7z"/>
		<path class="st1" d="M125,56.8h-1.1l1.9-3.1l-1.7-2.9h1.2l1.1,2l1.2-2h1.1l-1.8,2.9l1.9,3.1h-1.2l-1.3-2.3L125,56.8z"/>
		<path class="st1" d="M133.4,50.8V52h-1.2v-1.2H133.4z M133.4,55.6v1.2h-1.2v-1.2H133.4z"/>
		<path class="st1" d="M139.3,53c0.3-0.4,0.4-0.6,0.5-0.8c0.1-0.2,0.2-0.3,0.2-0.5c0-0.2,0-0.4,0-0.7v-0.8c0-0.2-0.1-0.5-0.3-0.6
			c-0.2-0.2-0.4-0.3-0.7-0.3h-1.4v-0.9h1.3c0.7,0,1.2,0.2,1.6,0.5c0.4,0.3,0.6,0.9,0.6,1.5v0.5c0,0.4,0,0.7-0.1,1
			c-0.1,0.2-0.1,0.5-0.2,0.7c-0.1,0.2-0.3,0.5-0.5,0.8l-1.8,2.5h2.9v0.9h-4v-1.1L139.3,53z"/>
		<path class="st1" d="M147.1,56.3c-0.3,0.3-0.8,0.5-1.6,0.5H144v-0.9h1.7c0.3,0,0.5-0.1,0.7-0.2c0.1-0.1,0.2-0.4,0.2-0.7v-1.5
			c0-0.3-0.1-0.5-0.2-0.6s-0.4-0.2-0.6-0.2h-1.6v-4.2h3.3v0.9h-2.3v2.4h0.5c0.6,0,1.1,0.2,1.5,0.5c0.4,0.3,0.5,0.8,0.5,1.4v1.3
			C147.6,55.5,147.4,56,147.1,56.3z"/>
		<path class="st1" d="M153.9,56.2c-0.4,0.3-0.9,0.5-1.5,0.5h-0.2c-0.6,0-1.1-0.2-1.5-0.5c-0.4-0.3-0.5-0.9-0.5-1.5v-4.3
			c0-0.7,0.2-1.2,0.5-1.5c0.4-0.3,0.9-0.5,1.5-0.5h0.2c0.6,0,1.1,0.2,1.5,0.5c0.4,0.3,0.5,0.9,0.5,1.5v4.3
			C154.4,55.4,154.2,55.9,153.9,56.2z M153.1,49.5c-0.2-0.2-0.4-0.3-0.7-0.3h-0.2c-0.3,0-0.5,0.1-0.7,0.3c-0.2,0.2-0.3,0.4-0.3,0.6
			v3.3l2.2-3.3C153.4,49.9,153.3,49.7,153.1,49.5z M151.4,55.6c0.2,0.2,0.4,0.3,0.7,0.3h0.2c0.3,0,0.5-0.1,0.7-0.3
			c0.2-0.2,0.3-0.4,0.3-0.6v-3.2l-2.2,3.2C151.2,55.2,151.2,55.4,151.4,55.6z"/>
		<path class="st1" d="M160.3,56.2c-0.4,0.3-0.9,0.5-1.5,0.5h-0.2c-0.6,0-1.1-0.2-1.5-0.5c-0.4-0.3-0.5-0.9-0.5-1.5v-4.3
			c0-0.7,0.2-1.2,0.5-1.5c0.4-0.3,0.9-0.5,1.5-0.5h0.2c0.6,0,1.1,0.2,1.5,0.5c0.4,0.3,0.5,0.9,0.5,1.5v4.3
			C160.9,55.4,160.7,55.9,160.3,56.2z M159.6,49.5c-0.2-0.2-0.4-0.3-0.7-0.3h-0.2c-0.3,0-0.5,0.1-0.7,0.3c-0.2,0.2-0.3,0.4-0.3,0.6
			v3.3l2.2-3.3C159.9,49.9,159.8,49.7,159.6,49.5z M157.9,55.6c0.2,0.2,0.4,0.3,0.7,0.3h0.2c0.3,0,0.5-0.1,0.7-0.3
			c0.2-0.2,0.3-0.4,0.3-0.6v-3.2l-2.2,3.2C157.6,55.2,157.7,55.4,157.9,55.6z"/>
	</g>
	
		<use xlink:href="#New_Symbol"  width="5.8" height="5.8" x="-2.9" y="-2.9" transform="matrix(0.7085 0 0 -0.7085 46.9839 52.539)" style="overflow:visible;"/>
	<g>
		<g>
			
				<use xlink:href="#New_Symbol"  width="5.8" height="5.8" x="-2.9" y="-2.9" transform="matrix(0.632 0 0 -0.632 218.4257 30.4461)" style="overflow:visible;"/>
			
				<use xlink:href="#New_Symbol"  width="5.8" height="5.8" x="-2.9" y="-2.9" transform="matrix(0.632 0 0 -0.632 214.3295 26.6333)" style="overflow:visible;"/>
			
				<use xlink:href="#New_Symbol"  width="5.8" height="5.8" x="-2.9" y="-2.9" transform="matrix(0.632 0 0 -0.632 197.4234 32.4175)" style="overflow:visible;"/>
			
				<use xlink:href="#New_Symbol"  width="5.8" height="5.8" x="-2.9" y="-2.9" transform="matrix(0.632 0 0 -0.632 201.4834 52.6625)" style="overflow:visible;"/>
			
				<use xlink:href="#New_Symbol"  width="5.8" height="5.8" x="-2.9" y="-2.9" transform="matrix(0.632 0 0 -0.632 208.3735 52.7591)" style="overflow:visible;"/>
			
				<use xlink:href="#New_Symbol"  width="5.8" height="5.8" x="-2.9" y="-2.9" transform="matrix(0.632 0 0 -0.632 215.8099 46.5539)" style="overflow:visible;"/>
			
				<use xlink:href="#New_Symbol"  width="5.8" height="5.8" x="-2.9" y="-2.9" transform="matrix(0.632 0 0 -0.632 219.2527 38.0702)" style="overflow:visible;"/>
			
				<use xlink:href="#New_Symbol"  width="5.8" height="5.8" x="-2.9" y="-2.9" transform="matrix(0.632 0 0 -0.632 206.3546 27.456)" style="overflow:visible;"/>
			
				<use xlink:href="#New_Symbol"  width="5.8" height="5.8" x="-2.9" y="-2.9" transform="matrix(0.632 0 0 -0.632 202.422 31.2413)" style="overflow:visible;"/>
			
				<use xlink:href="#New_Symbol"  width="5.8" height="5.8" x="-2.9" y="-2.9" transform="matrix(0.632 0 0 -0.632 197.605 39.4169)" style="overflow:visible;"/>
			
				<use xlink:href="#New_Symbol"  width="5.8" height="5.8" x="-2.9" y="-2.9" transform="matrix(0.632 0 0 -0.632 202.3964 41.7885)" style="overflow:visible;"/>
			
				<use xlink:href="#New_Symbol"  width="5.8" height="5.8" x="-2.9" y="-2.9" transform="matrix(0.632 0 0 -0.632 209.5105 39.3595)" style="overflow:visible;"/>
			
				<use xlink:href="#New_Symbol"  width="5.8" height="5.8" x="-2.9" y="-2.9" transform="matrix(0.632 0 0 -0.632 209.9743 34.1514)" style="overflow:visible;"/>
		</g>
		<g>
			
				<use xlink:href="#New_Symbol"  width="5.8" height="5.8" x="-2.9" y="-2.9" transform="matrix(0.4737 0.4184 0.4184 -0.4737 214.1571 46.9819)" style="overflow:visible;"/>
			
				<use xlink:href="#New_Symbol"  width="5.8" height="5.8" x="-2.9" y="-2.9" transform="matrix(0.4737 0.4184 0.4184 -0.4737 213.3417 41.2786)" style="overflow:visible;"/>
			
				<use xlink:href="#New_Symbol"  width="5.8" height="5.8" x="-2.9" y="-2.9" transform="matrix(0.4737 0.4184 0.4184 -0.4737 196.3628 25.7554)" style="overflow:visible;"/>
			
				<use xlink:href="#New_Symbol"  width="5.8" height="5.8" x="-2.9" y="-2.9" transform="matrix(0.4737 0.4184 0.4184 -0.4737 183.2264 37.9564)" style="overflow:visible;"/>
			
				<use xlink:href="#New_Symbol"  width="5.8" height="5.8" x="-2.9" y="-2.9" transform="matrix(0.4737 0.4184 0.4184 -0.4737 183.4233 48.0828)" style="overflow:visible;"/>
			
				<use xlink:href="#New_Symbol"  width="5.8" height="5.8" x="-2.9" y="-2.9" transform="matrix(0.4737 0.4184 0.4184 -0.4737 195.8538 47.8253)" style="overflow:visible;"/>
			
				<use xlink:href="#New_Symbol"  width="5.8" height="5.8" x="-2.9" y="-2.9" transform="matrix(0.4737 0.4184 0.4184 -0.4737 209.3329 35.3432)" style="overflow:visible;"/>
			
				<use xlink:href="#New_Symbol"  width="5.8" height="5.8" x="-2.9" y="-2.9" transform="matrix(0.4737 0.4184 0.4184 -0.4737 206.1142 29.95)" style="overflow:visible;"/>
			
				<use xlink:href="#New_Symbol"  width="5.8" height="5.8" x="-2.9" y="-2.9" transform="matrix(0.4737 0.4184 0.4184 -0.4737 199.693 30.6026)" style="overflow:visible;"/>
			
				<use xlink:href="#New_Symbol"  width="5.8" height="5.8" x="-2.9" y="-2.9" transform="matrix(0.4737 0.4184 0.4184 -0.4737 191.8083 33.5266)" style="overflow:visible;"/>
			
				<use xlink:href="#New_Symbol"  width="5.8" height="5.8" x="-2.9" y="-2.9" transform="matrix(0.4737 0.4184 0.4184 -0.4737 189.1102 41.3623)" style="overflow:visible;"/>
			
				<use xlink:href="#New_Symbol"  width="5.8" height="5.8" x="-2.9" y="-2.9" transform="matrix(0.4737 0.4184 0.4184 -0.4737 191.3983 53.2107)" style="overflow:visible;"/>
			
				<use xlink:href="#New_Symbol"  width="5.8" height="5.8" x="-2.9" y="-2.9" transform="matrix(0.4737 0.4184 0.4184 -0.4737 202.1081 57.0153)" style="overflow:visible;"/>
			
				<use xlink:href="#New_Symbol"  width="5.8" height="5.8" x="-2.9" y="-2.9" transform="matrix(0.4737 0.4184 0.4184 -0.4737 212.9131 55.6522)" style="overflow:visible;"/>
			
				<use xlink:href="#New_Symbol"  width="5.8" height="5.8" x="-2.9" y="-2.9" transform="matrix(0.4737 0.4184 0.4184 -0.4737 209.4453 52.6163)" style="overflow:visible;"/>
			
				<use xlink:href="#New_Symbol"  width="5.8" height="5.8" x="-2.9" y="-2.9" transform="matrix(0.4737 0.4184 0.4184 -0.4737 206.7387 46.7647)" style="overflow:visible;"/>
			
				<use xlink:href="#New_Symbol"  width="5.8" height="5.8" x="-2.9" y="-2.9" transform="matrix(0.4737 0.4184 0.4184 -0.4737 198.5959 41.3648)" style="overflow:visible;"/>
			
				<use xlink:href="#New_Symbol"  width="5.8" height="5.8" x="-2.9" y="-2.9" transform="matrix(0.4737 0.4184 0.4184 -0.4737 202.7125 43.4021)" style="overflow:visible;"/>
			
				<use xlink:href="#New_Symbol"  width="5.8" height="5.8" x="-2.9" y="-2.9" transform="matrix(0.4737 0.4184 0.4184 -0.4737 203.0118 37.7985)" style="overflow:visible;"/>
		</g>
		<g>
			
				<use xlink:href="#New_Symbol"  width="5.8" height="5.8" x="-2.9" y="-2.9" transform="matrix(0.1268 0.6191 0.6191 -0.1268 209.6562 54.617)" style="overflow:visible;"/>
			
				<use xlink:href="#New_Symbol"  width="5.8" height="5.8" x="-2.9" y="-2.9" transform="matrix(0.1268 0.6191 0.6191 -0.1268 212.4347 49.57)" style="overflow:visible;"/>
			
				<use xlink:href="#New_Symbol"  width="5.8" height="5.8" x="-2.9" y="-2.9" transform="matrix(0.1268 0.6191 0.6191 -0.1268 208.2048 26.9566)" style="overflow:visible;"/>
			
				<use xlink:href="#New_Symbol"  width="5.8" height="5.8" x="-2.9" y="-2.9" transform="matrix(0.1268 0.6191 0.6191 -0.1268 190.3718 28.8046)" style="overflow:visible;"/>
			
				<use xlink:href="#New_Symbol"  width="5.8" height="5.8" x="-2.9" y="-2.9" transform="matrix(0.1268 0.6191 0.6191 -0.1268 184.4392 37.0136)" style="overflow:visible;"/>
			
				<use xlink:href="#New_Symbol"  width="5.8" height="5.8" x="-2.9" y="-2.9" transform="matrix(0.1268 0.6191 0.6191 -0.1268 194.5255 44.2835)" style="overflow:visible;"/>
			
				<use xlink:href="#New_Symbol"  width="5.8" height="5.8" x="-2.9" y="-2.9" transform="matrix(0.1268 0.6191 0.6191 -0.1268 212.8013 42.4169)" style="overflow:visible;"/>
			
				<use xlink:href="#New_Symbol"  width="5.8" height="5.8" x="-2.9" y="-2.9" transform="matrix(0.1268 0.6191 0.6191 -0.1268 213.4731 36.1723)" style="overflow:visible;"/>
			
				<use xlink:href="#New_Symbol"  width="5.8" height="5.8" x="-2.9" y="-2.9" transform="matrix(0.1268 0.6191 0.6191 -0.1268 207.9503 32.8321)" style="overflow:visible;"/>
			
				<use xlink:href="#New_Symbol"  width="5.8" height="5.8" x="-2.9" y="-2.9" transform="matrix(0.1268 0.6191 0.6191 -0.1268 199.8924 30.4265)" style="overflow:visible;"/>
			
				<use xlink:href="#New_Symbol"  width="5.8" height="5.8" x="-2.9" y="-2.9" transform="matrix(0.1268 0.6191 0.6191 -0.1268 193.0244 35.0643)" style="overflow:visible;"/>
			
				<use xlink:href="#New_Symbol"  width="5.8" height="5.8" x="-2.9" y="-2.9" transform="matrix(0.1268 0.6191 0.6191 -0.1268 187.727 45.9066)" style="overflow:visible;"/>
			
				<use xlink:href="#New_Symbol"  width="5.8" height="5.8" x="-2.9" y="-2.9" transform="matrix(0.1268 0.6191 0.6191 -0.1268 193.9956 55.3871)" style="overflow:visible;"/>
			
				<use xlink:href="#New_Symbol"  width="5.8" height="5.8" x="-2.9" y="-2.9" transform="matrix(0.1268 0.6191 0.6191 -0.1268 203.4481 60.796)" style="overflow:visible;"/>
			
				<use xlink:href="#New_Symbol"  width="5.8" height="5.8" x="-2.9" y="-2.9" transform="matrix(0.1268 0.6191 0.6191 -0.1268 202.5033 56.2849)" style="overflow:visible;"/>
			
				<use xlink:href="#New_Symbol"  width="5.8" height="5.8" x="-2.9" y="-2.9" transform="matrix(0.1268 0.6191 0.6191 -0.1268 203.8598 49.9821)" style="overflow:visible;"/>
			
				<use xlink:href="#New_Symbol"  width="5.8" height="5.8" x="-2.9" y="-2.9" transform="matrix(0.1268 0.6191 0.6191 -0.1268 200.6015 40.7709)" style="overflow:visible;"/>
			
				<use xlink:href="#New_Symbol"  width="5.8" height="5.8" x="-2.9" y="-2.9" transform="matrix(0.1268 0.6191 0.6191 -0.1268 202.6654 44.8743)" style="overflow:visible;"/>
			
				<use xlink:href="#New_Symbol"  width="5.8" height="5.8" x="-2.9" y="-2.9" transform="matrix(0.1268 0.6191 0.6191 -0.1268 206.2744 40.5772)" style="overflow:visible;"/>
		</g>
		<g>
			
				<use xlink:href="#New_Symbol"  width="5.8" height="5.8" x="-2.9" y="-2.9" transform="matrix(0.198 0.6002 0.6002 -0.198 208.2939 50.3181)" style="overflow:visible;"/>
			
				<use xlink:href="#New_Symbol"  width="5.8" height="5.8" x="-2.9" y="-2.9" transform="matrix(0.198 0.6002 0.6002 -0.198 210.466 44.982)" style="overflow:visible;"/>
			
				<use xlink:href="#New_Symbol"  width="5.8" height="5.8" x="-2.9" y="-2.9" transform="matrix(0.198 0.6002 0.6002 -0.198 203.6327 23.0147)" style="overflow:visible;"/>
			
				<use xlink:href="#New_Symbol"  width="5.8" height="5.8" x="-2.9" y="-2.9" transform="matrix(0.198 0.6002 0.6002 -0.198 186.1361 26.9259)" style="overflow:visible;"/>
			
				<use xlink:href="#New_Symbol"  width="5.8" height="5.8" x="-2.9" y="-2.9" transform="matrix(0.198 0.6002 0.6002 -0.198 181.1992 35.7696)" style="overflow:visible;"/>
			
				<use xlink:href="#New_Symbol"  width="5.8" height="5.8" x="-2.9" y="-2.9" transform="matrix(0.198 0.6002 0.6002 -0.198 192.0632 41.816)" style="overflow:visible;"/>
			
				<use xlink:href="#New_Symbol"  width="5.8" height="5.8" x="-2.9" y="-2.9" transform="matrix(0.198 0.6002 0.6002 -0.198 209.9975 37.8349)" style="overflow:visible;"/>
			
				<use xlink:href="#New_Symbol"  width="5.8" height="5.8" x="-2.9" y="-2.9" transform="matrix(0.198 0.6002 0.6002 -0.198 209.9379 31.5546)" style="overflow:visible;"/>
			
				<use xlink:href="#New_Symbol"  width="5.8" height="5.8" x="-2.9" y="-2.9" transform="matrix(0.198 0.6002 0.6002 -0.198 204.0639 28.8799)" style="overflow:visible;"/>
			
				<use xlink:href="#New_Symbol"  width="5.8" height="5.8" x="-2.9" y="-2.9" transform="matrix(0.198 0.6002 0.6002 -0.198 195.7807 27.4286)" style="overflow:visible;"/>
			
				<use xlink:href="#New_Symbol"  width="5.8" height="5.8" x="-2.9" y="-2.9" transform="matrix(0.198 0.6002 0.6002 -0.198 189.4992 32.8342)" style="overflow:visible;"/>
			
				<use xlink:href="#New_Symbol"  width="5.8" height="5.8" x="-2.9" y="-2.9" transform="matrix(0.198 0.6002 0.6002 -0.198 185.4999 44.2195)" style="overflow:visible;"/>
			
				<use xlink:href="#New_Symbol"  width="5.8" height="5.8" x="-2.9" y="-2.9" transform="matrix(0.198 0.6002 0.6002 -0.198 192.8294 52.9059)" style="overflow:visible;"/>
			
				<use xlink:href="#New_Symbol"  width="5.8" height="5.8" x="-2.9" y="-2.9" transform="matrix(0.198 0.6002 0.6002 -0.198 202.8472 57.1778)" style="overflow:visible;"/>
			
				<use xlink:href="#New_Symbol"  width="5.8" height="5.8" x="-2.9" y="-2.9" transform="matrix(0.198 0.6002 0.6002 -0.198 201.3837 52.8073)" style="overflow:visible;"/>
			
				<use xlink:href="#New_Symbol"  width="5.8" height="5.8" x="-2.9" y="-2.9" transform="matrix(0.198 0.6002 0.6002 -0.198 201.9975 46.3895)" style="overflow:visible;"/>
			
				<use xlink:href="#New_Symbol"  width="5.8" height="5.8" x="-2.9" y="-2.9" transform="matrix(0.198 0.6002 0.6002 -0.198 197.6891 37.6201)" style="overflow:visible;"/>
			
				<use xlink:href="#New_Symbol"  width="5.8" height="5.8" x="-2.9" y="-2.9" transform="matrix(0.198 0.6002 0.6002 -0.198 200.2166 41.4554)" style="overflow:visible;"/>
			
				<use xlink:href="#New_Symbol"  width="5.8" height="5.8" x="-2.9" y="-2.9" transform="matrix(0.198 0.6002 0.6002 -0.198 203.3008 36.7674)" style="overflow:visible;"/>
		</g>
	</g>
	<g>
		<path class="st1" d="M76.9,52.6v0.9h-5.7v-0.9H76.9z"/>
	</g>
	<linearGradient id="SVGID_1_" gradientUnits="userSpaceOnUse" x1="364.7131" y1="29.6811" x2="603.3901" y2="29.6811">
		<stop  offset="0" style="stop-color:#FF0000"/>
		<stop  offset="0.75" style="stop-color:#FFFF00"/>
		<stop  offset="1" style="stop-color:#00FF00"/>
	</linearGradient>
	<rect x="364.7" y="24.6" class="st2" width="238.7" height="10.1"/>
	<g>
		<path class="st1" d="M368.6,11.9V1.3h-2.7V0h6.9v1.3H370v10.6H368.6z"/>
		<path class="st1" d="M376.8,10.6v-6h-1.2V3.4h2.6v0.5c0.4-0.3,0.8-0.5,1.4-0.5h1.8v1.4h-1.9c-0.4,0-0.6,0.1-0.8,0.3
			c-0.2,0.2-0.3,0.5-0.3,0.7v4.8h1.9v1.3h-4.5v-1.3H376.8z"/>
		<path class="st1" d="M389.7,11.8c-0.2-0.1-0.3-0.2-0.5-0.4c-0.3,0.3-0.6,0.5-1,0.5h-1.5c-0.9,0-1.5-0.2-1.9-0.5s-0.6-0.9-0.6-1.8
			V9.3c0-1.8,0.8-2.6,2.5-2.6h2.1V5.8c0-0.4-0.1-0.6-0.3-0.8c-0.2-0.2-0.5-0.3-1-0.3h-2.6V3.4h2.5c1,0,1.7,0.2,2.2,0.6
			c0.5,0.4,0.7,1.1,0.7,2.1v4.1c0,0.2,0.1,0.3,0.2,0.4c0.1,0.1,0.3,0.1,0.7,0.1v1.2h-0.9C390,11.9,389.9,11.9,389.7,11.8z
			 M388.7,10.4c0.1-0.2,0.1-0.4,0.1-0.6V7.9h-2.1c-0.3,0-0.5,0.1-0.7,0.3c-0.2,0.2-0.3,0.4-0.3,0.7v0.9c0,0.3,0.1,0.5,0.2,0.6
			s0.4,0.2,0.6,0.2h1.5C388.4,10.6,388.6,10.5,388.7,10.4z"/>
		<path class="st1" d="M397,1.4c-0.1,0.1-0.2,0.2-0.2,0.4v1.6h2.7v1.3h-2.7v6h2.1v1.3h-4.9v-1.3h1.4v-6h-1.4V3.4h1.4V1.9
			c0-0.6,0.2-1,0.5-1.4c0.3-0.3,0.8-0.5,1.3-0.5h2.6v1.3h-2.3C397.2,1.3,397.1,1.3,397,1.4z"/>
		<path class="st1" d="M406.2,1.4c-0.1,0.1-0.2,0.2-0.2,0.4v1.6h2.7v1.3H406v6h2.1v1.3h-4.9v-1.3h1.4v-6h-1.4V3.4h1.4V1.9
			c0-0.6,0.2-1,0.5-1.4c0.3-0.3,0.8-0.5,1.3-0.5h2.6v1.3h-2.3C406.4,1.3,406.3,1.3,406.2,1.4z M412,4.7V3.4h3.9v7.2h2.5v1.3h-4V4.7
			H412z M416,0v1.5h-1.6V0H416z"/>
		<path class="st1" d="M422.5,11.3c-0.5-0.4-0.7-1.1-0.7-2.1V6.1c0-1,0.2-1.6,0.7-2.1c0.5-0.4,1.2-0.6,2.2-0.6h2.2v1.3h-2.4
			c-0.4,0-0.7,0.1-1,0.3c-0.2,0.2-0.3,0.5-0.3,0.8v3.7c0,0.4,0.1,0.6,0.3,0.8c0.2,0.2,0.5,0.3,1,0.3h2.4v1.3h-2.2
			C423.7,11.9,423,11.7,422.5,11.3z"/>
		<path class="st1" d="M444.8,11.2c-0.5,0.5-1.3,0.7-2.3,0.7h-2.4v-1.3h2.6c0.4,0,0.8-0.1,1-0.4c0.3-0.2,0.4-0.5,0.4-0.9V7.6
			c0-0.3-0.1-0.6-0.3-0.8c-0.2-0.2-0.4-0.3-0.8-0.3h-0.5c-0.8,0-1.5-0.2-2-0.7c-0.5-0.5-0.7-1.2-0.7-2.2V2.9c0-1,0.3-1.7,0.8-2.2
			c0.5-0.5,1.3-0.7,2.3-0.7h2.4v1.3h-2.6c-0.4,0-0.8,0.1-1,0.4s-0.4,0.5-0.4,0.9v1.3c0,0.4,0.1,0.6,0.3,0.9c0.2,0.2,0.5,0.3,0.9,0.3
			h0.5c0.8,0,1.4,0.2,1.9,0.7c0.4,0.5,0.7,1.2,0.7,2.1V9C445.6,10,445.4,10.7,444.8,11.2z"/>
		<path class="st1" d="M450.2,3.4v0.4c0.4-0.3,0.8-0.4,1.4-0.4h0.6c1,0,1.7,0.2,2.2,0.6c0.5,0.4,0.7,1.1,0.7,2.1v3.1
			c0,1-0.2,1.6-0.7,2.1c-0.5,0.4-1.2,0.6-2.2,0.6h-1.9v2.9h-1.4V3.4H450.2z M450.5,5c-0.2,0.2-0.3,0.4-0.3,0.6v5h2.1
			c0.4,0,0.7-0.1,1-0.3c0.2-0.2,0.3-0.5,0.3-0.8V5.8c0-0.4-0.1-0.6-0.3-0.8c-0.2-0.2-0.5-0.3-1-0.3h-1C451,4.7,450.7,4.8,450.5,5z"
			/>
		<path class="st1" d="M458.8,11.3c-0.5-0.4-0.7-1.1-0.7-2.1V6.1c0-1,0.2-1.7,0.6-2.1c0.4-0.4,1.1-0.6,2.1-0.6h0.8
			c0.8,0,1.4,0.2,1.8,0.7c0.4,0.4,0.6,1.1,0.6,2v2.2h-4.5v1.3c0,0.4,0.1,0.6,0.3,0.8c0.2,0.2,0.5,0.3,1,0.3h2.7v1.3H461
			C460,11.9,459.3,11.7,458.8,11.3z M462.7,5.7c0-0.3-0.1-0.5-0.3-0.7c-0.2-0.2-0.4-0.3-0.7-0.3h-1c-0.4,0-0.7,0.1-0.9,0.3
			c-0.2,0.2-0.2,0.5-0.2,0.8V7h3.1V5.7z"/>
		<path class="st1" d="M468,11.3c-0.5-0.4-0.7-1.1-0.7-2.1V6.1c0-1,0.2-1.7,0.6-2.1c0.4-0.4,1.1-0.6,2.1-0.6h0.8
			c0.8,0,1.4,0.2,1.8,0.7c0.4,0.4,0.6,1.1,0.6,2v2.2h-4.5v1.3c0,0.4,0.1,0.6,0.3,0.8c0.2,0.2,0.5,0.3,1,0.3h2.7v1.3h-2.5
			C469.2,11.9,468.5,11.7,468,11.3z M471.8,5.7c0-0.3-0.1-0.5-0.3-0.7c-0.2-0.2-0.4-0.3-0.7-0.3h-1c-0.4,0-0.7,0.1-0.9,0.3
			c-0.2,0.2-0.2,0.5-0.2,0.8V7h3.1V5.7z"/>
		<path class="st1" d="M479.9,11.9h-0.7c-1,0-1.7-0.2-2.2-0.6c-0.5-0.4-0.7-1.1-0.7-2.1V6.1c0-1,0.2-1.6,0.7-2.1
			c0.5-0.4,1.2-0.6,2.2-0.6h2V0h1.4v11.9h-1.4v-0.4C480.9,11.8,480.4,11.9,479.9,11.9z M480.9,10.3c0.2-0.2,0.3-0.4,0.3-0.6v-5H479
			c-0.4,0-0.7,0.1-1,0.3c-0.2,0.2-0.3,0.5-0.3,0.8v3.7c0,0.4,0.1,0.6,0.3,0.8c0.2,0.2,0.5,0.3,1,0.3h1
			C480.4,10.6,480.7,10.5,480.9,10.3z"/>
		<path class="st1" d="M495.6,3.6c0.2-0.6,0.6-1.1,1-1.5h1.1c-0.4,0.5-0.7,0.9-0.9,1.2s-0.3,0.7-0.4,1.1s-0.1,0.9-0.1,1.5v3.8
			c0,0.6,0,1.1,0.1,1.5s0.2,0.7,0.4,1.1s0.5,0.7,0.9,1.2h-1.1c-0.4-0.4-0.8-0.9-1-1.5c-0.2-0.6-0.4-1.3-0.4-2.3V5.8
			C495.3,4.9,495.4,4.2,495.6,3.6z"/>
		<path class="st1" d="M505.1,6.9v0.7L499,8.5V7.8L505.1,6.9z M501.9,6.7c-0.3,0.3-0.6,0.4-1.1,0.4h-0.1c-0.5,0-0.8-0.1-1.1-0.4
			c-0.3-0.3-0.4-0.6-0.4-1.1V5c0-0.5,0.1-0.9,0.4-1.1c0.3-0.3,0.6-0.4,1.1-0.4h0.1c0.5,0,0.8,0.1,1.1,0.4c0.3,0.3,0.4,0.6,0.4,1.1
			v0.5C502.3,6,502.2,6.4,501.9,6.7z M501.3,4.4c-0.1-0.1-0.3-0.2-0.5-0.2h-0.1c-0.2,0-0.4,0.1-0.5,0.2c-0.1,0.1-0.2,0.3-0.2,0.5
			v0.7c0,0.2,0.1,0.4,0.2,0.5c0.1,0.1,0.3,0.2,0.5,0.2h0.1c0.2,0,0.4-0.1,0.5-0.2c0.1-0.1,0.2-0.3,0.2-0.5V4.9
			C501.4,4.7,501.4,4.5,501.3,4.4z M504.4,11.5c-0.3,0.3-0.6,0.4-1.1,0.4h-0.1c-0.5,0-0.8-0.1-1.1-0.4c-0.3-0.3-0.4-0.6-0.4-1.1V9.9
			c0-0.5,0.1-0.9,0.4-1.1c0.3-0.3,0.6-0.4,1.1-0.4h0.1c0.5,0,0.8,0.1,1.1,0.4c0.3,0.3,0.4,0.6,0.4,1.1v0.5
			C504.8,10.9,504.7,11.2,504.4,11.5z M503.8,9.3c-0.1-0.1-0.3-0.2-0.5-0.2h-0.1c-0.2,0-0.4,0.1-0.5,0.2c-0.1,0.1-0.2,0.3-0.2,0.5
			v0.7c0,0.2,0.1,0.4,0.2,0.5c0.1,0.1,0.3,0.2,0.5,0.2h0.1c0.2,0,0.4-0.1,0.5-0.2c0.1-0.1,0.2-0.3,0.2-0.5V9.8
			C504,9.6,503.9,9.4,503.8,9.3z"/>
		<path class="st1" d="M514.9,11.4c-0.3,0.3-0.8,0.5-1.5,0.5H513c-0.7,0-1.2-0.2-1.5-0.5c-0.3-0.3-0.5-0.8-0.5-1.5V7.8
			c0-0.7,0.2-1.2,0.5-1.5s0.8-0.5,1.5-0.5h0.4c0.7,0,1.2,0.2,1.5,0.5s0.5,0.8,0.5,1.5V10C515.4,10.7,515.3,11.1,514.9,11.4z
			 M514.2,7c-0.2-0.1-0.4-0.2-0.7-0.2h-0.6c-0.3,0-0.5,0.1-0.7,0.2c-0.2,0.1-0.2,0.3-0.2,0.6v2.6c0,0.2,0.1,0.4,0.2,0.6
			c0.2,0.1,0.4,0.2,0.7,0.2h0.6c0.3,0,0.5-0.1,0.7-0.2c0.2-0.1,0.2-0.3,0.2-0.6V7.6C514.4,7.3,514.3,7.1,514.2,7z"/>
		<path class="st1" d="M518.9,4.5c-0.1,0.1-0.1,0.2-0.1,0.3v1.1h1.9v0.9h-1.9V11h1.5v0.9h-3.5V11h1V6.8h-1V5.9h1V4.8
			c0-0.4,0.1-0.7,0.3-1c0.2-0.2,0.5-0.4,0.9-0.4h1.8v0.9h-1.6C519.1,4.4,519,4.4,518.9,4.5z"/>
		<path class="st1" d="M530.1,4.5c-0.1,0.1-0.1,0.2-0.1,0.3v1.1h1.9v0.9h-1.9V11h1.5v0.9h-3.5V11h1V6.8h-1V5.9h1V4.8
			c0-0.4,0.1-0.7,0.3-1c0.2-0.2,0.5-0.4,0.9-0.4h1.8v0.9h-1.6C530.2,4.4,530.1,4.4,530.1,4.5z"/>
		<path class="st1" d="M534.4,11V6.8h-0.9V5.9h1.8v0.3c0.3-0.2,0.6-0.3,1-0.3h1.2v1h-1.4c-0.3,0-0.4,0.1-0.6,0.2s-0.2,0.3-0.2,0.5
			V11h1.3v0.9h-3.2V11H534.4z"/>
		<path class="st1" d="M539.5,11.4c-0.3-0.3-0.5-0.8-0.5-1.5V7.8c0-0.7,0.1-1.2,0.4-1.5c0.3-0.3,0.8-0.4,1.5-0.4h0.6
			c0.6,0,1,0.2,1.3,0.5s0.4,0.8,0.4,1.4v1.6H540v0.9c0,0.2,0.1,0.4,0.2,0.6c0.2,0.1,0.4,0.2,0.7,0.2h1.9v0.9H541
			C540.3,11.9,539.8,11.8,539.5,11.4z M542.2,7.5c0-0.2-0.1-0.4-0.2-0.5c-0.1-0.1-0.3-0.2-0.5-0.2h-0.7c-0.3,0-0.5,0.1-0.6,0.2
			c-0.1,0.1-0.2,0.3-0.2,0.6v0.8h2.2V7.5z"/>
		<path class="st1" d="M545.1,11.4c-0.3-0.3-0.5-0.8-0.5-1.5V7.8c0-0.7,0.1-1.2,0.4-1.5c0.3-0.3,0.8-0.4,1.5-0.4h0.6
			c0.6,0,1,0.2,1.3,0.5s0.4,0.8,0.4,1.4v1.6h-3.2v0.9c0,0.2,0.1,0.4,0.2,0.6c0.2,0.1,0.4,0.2,0.7,0.2h1.9v0.9h-1.8
			C545.9,11.9,545.4,11.8,545.1,11.4z M547.8,7.5c0-0.2-0.1-0.4-0.2-0.5c-0.1-0.1-0.3-0.2-0.5-0.2h-0.7c-0.3,0-0.5,0.1-0.6,0.2
			c-0.1,0.1-0.2,0.3-0.2,0.6v0.8h2.2V7.5z"/>
		<path class="st1" d="M552.4,4.5c-0.1,0.1-0.1,0.2-0.1,0.3v1.1h1.9v0.9h-1.9V11h1.5v0.9h-3.5V11h1V6.8h-1V5.9h1V4.8
			c0-0.4,0.1-0.7,0.3-1c0.2-0.2,0.5-0.4,0.9-0.4h1.8v0.9h-1.6C552.6,4.4,552.4,4.4,552.4,4.5z M558.4,11.6c-0.2-0.2-0.3-0.5-0.3-0.9
			V4.4h-1.8V3.5h2.8v7.1c0,0.1,0,0.2,0.1,0.3c0.1,0.1,0.2,0.1,0.3,0.1h1.6v0.9h-2C558.9,11.9,558.6,11.8,558.4,11.6z"/>
		<path class="st1" d="M566.1,11.4c-0.3,0.3-0.8,0.5-1.5,0.5h-0.4c-0.7,0-1.2-0.2-1.5-0.5c-0.3-0.3-0.5-0.8-0.5-1.5V7.8
			c0-0.7,0.2-1.2,0.5-1.5s0.8-0.5,1.5-0.5h0.4c0.7,0,1.2,0.2,1.5,0.5s0.5,0.8,0.5,1.5V10C566.6,10.7,566.4,11.1,566.1,11.4z
			 M565.3,7c-0.2-0.1-0.4-0.2-0.7-0.2H564c-0.3,0-0.5,0.1-0.7,0.2c-0.2,0.1-0.2,0.3-0.2,0.6v2.6c0,0.2,0.1,0.4,0.2,0.6
			c0.2,0.1,0.4,0.2,0.7,0.2h0.6c0.3,0,0.5-0.1,0.7-0.2c0.2-0.1,0.2-0.3,0.2-0.6V7.6C565.5,7.3,565.5,7.1,565.3,7z"/>
		<path class="st1" d="M569.9,8.9l-0.6,3h-1.1l-1.1-6h1l0.7,4.8l0.8-3.7h0.8l0.7,3.7l0.7-4.8h1l-1.1,6h-1.2L569.9,8.9z"/>
		<path class="st1" d="M582.4,11.5c-0.3,0.2-0.8,0.4-1.3,0.4h-1.8V11h1.9c0.2,0,0.4,0,0.5-0.1c0.1-0.1,0.2-0.2,0.2-0.4V9.8
			c0-0.4-0.2-0.5-0.5-0.5h-0.4c-0.6,0-1-0.1-1.3-0.4s-0.4-0.6-0.4-1.2V7.4c0-0.5,0.2-0.9,0.5-1.2s0.8-0.4,1.3-0.4h1.6v0.9h-1.7
			c-0.2,0-0.4,0-0.5,0.1s-0.2,0.2-0.2,0.4v0.4c0,0.2,0.1,0.3,0.2,0.4c0.1,0.1,0.2,0.1,0.4,0.1h0.4c0.5,0,0.9,0.1,1.2,0.4
			c0.3,0.3,0.4,0.6,0.4,1.2v0.5C582.9,10.9,582.7,11.3,582.4,11.5z"/>
		<path class="st1" d="M585.4,5.9v0.3c0.2-0.2,0.6-0.3,1-0.3h0.4c0.7,0,1.2,0.1,1.5,0.5c0.3,0.3,0.5,0.8,0.5,1.5V10
			c0,0.7-0.2,1.2-0.5,1.5c-0.3,0.3-0.8,0.5-1.5,0.5h-1.3v2h-1v-8H585.4z M585.7,7c-0.1,0.1-0.2,0.3-0.2,0.5V11h1.5
			c0.3,0,0.5-0.1,0.7-0.2c0.2-0.1,0.2-0.3,0.2-0.6V7.6c0-0.2-0.1-0.4-0.2-0.6c-0.2-0.1-0.4-0.2-0.7-0.2h-0.7
			C586,6.8,585.8,6.9,585.7,7z"/>
		<path class="st1" d="M590.6,11.4c-0.3-0.3-0.5-0.8-0.5-1.5V7.8c0-0.7,0.1-1.2,0.4-1.5c0.3-0.3,0.8-0.4,1.5-0.4h0.6
			c0.6,0,1,0.2,1.3,0.5s0.4,0.8,0.4,1.4v1.6h-3.2v0.9c0,0.2,0.1,0.4,0.2,0.6c0.2,0.1,0.4,0.2,0.7,0.2h1.9v0.9h-1.8
			C591.5,11.9,590.9,11.8,590.6,11.4z M593.3,7.5c0-0.2-0.1-0.4-0.2-0.5c-0.1-0.1-0.3-0.2-0.5-0.2h-0.7c-0.3,0-0.5,0.1-0.6,0.2
			c-0.1,0.1-0.2,0.3-0.2,0.6v0.8h2.2V7.5z"/>
		<path class="st1" d="M596.2,11.4c-0.3-0.3-0.5-0.8-0.5-1.5V7.8c0-0.7,0.1-1.2,0.4-1.5c0.3-0.3,0.8-0.4,1.5-0.4h0.6
			c0.6,0,1,0.2,1.3,0.5s0.4,0.8,0.4,1.4v1.6h-3.2v0.9c0,0.2,0.1,0.4,0.2,0.6c0.2,0.1,0.4,0.2,0.7,0.2h1.9v0.9h-1.8
			C597,11.9,596.5,11.8,596.2,11.4z M598.9,7.5c0-0.2-0.1-0.4-0.2-0.5c-0.1-0.1-0.3-0.2-0.5-0.2h-0.7c-0.3,0-0.5,0.1-0.6,0.2
			c-0.1,0.1-0.2,0.3-0.2,0.6v0.8h2.2V7.5z"/>
		<path class="st1" d="M603.7,11.9h-0.5c-0.7,0-1.2-0.1-1.5-0.5c-0.3-0.3-0.5-0.8-0.5-1.5V7.8c0-0.7,0.2-1.2,0.5-1.5
			s0.8-0.5,1.5-0.5h1.4V3.5h1v8.4h-1v-0.3C604.4,11.8,604.1,11.9,603.7,11.9z M604.4,10.8c0.1-0.1,0.2-0.3,0.2-0.5V6.8h-1.5
			c-0.3,0-0.5,0.1-0.7,0.2c-0.2,0.1-0.2,0.3-0.2,0.6v2.6c0,0.2,0.1,0.4,0.2,0.6c0.2,0.1,0.4,0.2,0.7,0.2h0.7
			C604.1,11,604.3,10.9,604.4,10.8z"/>
		<path class="st1" d="M609.8,11.8c-0.2,0.6-0.6,1.1-1,1.5h-1.1c0.4-0.5,0.7-0.9,0.9-1.2c0.2-0.3,0.3-0.7,0.4-1.1s0.1-0.9,0.1-1.5
			V5.8c0-0.6,0-1.1-0.1-1.5s-0.2-0.7-0.4-1.1c-0.2-0.3-0.5-0.7-0.9-1.2h1.1c0.4,0.4,0.8,0.9,1,1.5c0.2,0.6,0.4,1.3,0.4,2.3v3.7
			C610.2,10.5,610.1,11.2,609.8,11.8z"/>
	</g>
	<g>
		<path class="st1" d="M365.9,56.2c-0.4,0.3-0.9,0.5-1.5,0.5h-0.2c-0.6,0-1.1-0.2-1.5-0.5c-0.4-0.3-0.5-0.9-0.5-1.5v-4.3
			c0-0.7,0.2-1.2,0.5-1.5c0.4-0.3,0.9-0.5,1.5-0.5h0.2c0.6,0,1.1,0.2,1.5,0.5c0.4,0.3,0.5,0.9,0.5,1.5v4.3
			C366.5,55.4,366.3,55.9,365.9,56.2z M365.2,49.5c-0.2-0.2-0.4-0.3-0.7-0.3h-0.2c-0.3,0-0.5,0.1-0.7,0.3c-0.2,0.2-0.3,0.4-0.3,0.6
			v3.3l2.2-3.3C365.5,49.9,365.4,49.7,365.2,49.5z M363.5,55.6c0.2,0.2,0.4,0.3,0.7,0.3h0.2c0.3,0,0.5-0.1,0.7-0.3
			c0.2-0.2,0.3-0.4,0.3-0.6v-3.2l-2.2,3.2C363.2,55.2,363.3,55.4,363.5,55.6z"/>
	</g>
	<g>
		<path class="st1" d="M526,49.3h-2.9v-0.9h3.9v1.2l-2.1,7.2h-1.1L526,49.3z"/>
		<path class="st1" d="M532,56.3c-0.3,0.3-0.8,0.5-1.6,0.5h-1.6v-0.9h1.7c0.3,0,0.5-0.1,0.7-0.2c0.1-0.1,0.2-0.4,0.2-0.7v-1.5
			c0-0.3-0.1-0.5-0.2-0.6c-0.2-0.2-0.4-0.2-0.6-0.2H529v-4.2h3.3v0.9H530v2.4h0.5c0.6,0,1.1,0.2,1.5,0.5c0.4,0.3,0.5,0.8,0.5,1.4
			v1.3C532.4,55.5,532.3,56,532,56.3z"/>
	</g>
	<g>
		<path class="st1" d="M597.5,55.9v-6.6l-1.7,0.6v-1l1.6-0.6h1.1v7.5h1.3v0.9h-3.9v-0.9H597.5z"/>
		<path class="st1" d="M605,56.2c-0.4,0.3-0.9,0.5-1.5,0.5h-0.2c-0.6,0-1.1-0.2-1.5-0.5c-0.4-0.3-0.5-0.9-0.5-1.5v-4.3
			c0-0.7,0.2-1.2,0.5-1.5c0.4-0.3,0.9-0.5,1.5-0.5h0.2c0.6,0,1.1,0.2,1.5,0.5c0.4,0.3,0.5,0.9,0.5,1.5v4.3
			C605.5,55.4,605.3,55.9,605,56.2z M604.2,49.5c-0.2-0.2-0.4-0.3-0.7-0.3h-0.2c-0.3,0-0.5,0.1-0.7,0.3c-0.2,0.2-0.3,0.4-0.3,0.6
			v3.3l2.2-3.3C604.5,49.9,604.4,49.7,604.2,49.5z M602.6,55.6c0.2,0.2,0.4,0.3,0.7,0.3h0.2c0.3,0,0.5-0.1,0.7-0.3
			c0.2-0.2,0.3-0.4,0.3-0.6v-3.2l-2.2,3.2C602.3,55.2,602.4,55.4,602.6,55.6z"/>
		<path class="st1" d="M610.6,56.2c-0.4,0.3-0.9,0.5-1.5,0.5h-0.2c-0.6,0-1.1-0.2-1.5-0.5c-0.4-0.3-0.5-0.9-0.5-1.5v-4.3
			c0-0.7,0.2-1.2,0.5-1.5c0.4-0.3,0.9-0.5,1.5-0.5h0.2c0.6,0,1.1,0.2,1.5,0.5c0.4,0.3,0.5,0.9,0.5,1.5v4.3
			C611.1,55.4,610.9,55.9,610.6,56.2z M609.8,49.5c-0.2-0.2-0.4-0.3-0.7-0.3h-0.2c-0.3,0-0.5,0.1-0.7,0.3c-0.2,0.2-0.3,0.4-0.3,0.6
			v3.3l2.2-3.3C610.1,49.9,610,49.7,609.8,49.5z M608.1,55.6c0.2,0.2,0.4,0.3,0.7,0.3h0.2c0.3,0,0.5-0.1,0.7-0.3
			c0.2-0.2,0.3-0.4,0.3-0.6v-3.2l-2.2,3.2C607.9,55.2,607.9,55.4,608.1,55.6z"/>
	</g>
	<g>
		<rect x="527.9" y="36.8" class="st1" width="0.8" height="6.6"/>
		<rect x="603" y="36.8" class="st1" width="0.8" height="6.6"/>
		<rect x="364.3" y="36.8" class="st1" width="0.8" height="6.6"/>
	</g>
</g>
</svg>
